<svg xmlns="http://www.w3.org/2000/svg" viewBox="0 0 475.65 475.01"><defs><style>.cls-1{fill:#f29f05;}.cls-2{fill:#02d2de;}</style></defs><g id="Layer_2" data-name="Layer 2"><g id="Layout"><path class="cls-1" d="M237.77,118.43h.1a118.7,118.7,0,0,1,118.7,118.7V594.08a0,0,0,0,1,0,0H119.07a0,0,0,0,1,0,0V237.13a118.7,118.7,0,0,1,118.7-118.7Z" transform="translate(594.08 118.43) rotate(90)"/><path class="cls-2" d="M237.82,0H356.95a118.7,118.7,0,0,1,118.7,118.7v.1a118.7,118.7,0,0,1-118.7,118.7H237.82a0,0,0,0,1,0,0V0A0,0,0,0,1,237.82,0Z" transform="translate(713.47 237.5) rotate(180)"/></g></g></svg>