<svg xmlns="http://www.w3.org/2000/svg" viewBox="0 0 489.89 491.65"><defs><style>.cls-1{fill:#39d4fa;}.cls-2{fill:#000079;}</style></defs><g id="Layer_2" data-name="Layer 2"><g id="Layout"><path class="cls-1" d="M244.95,0H489.89a0,0,0,0,1,0,0V1A244.95,244.95,0,0,1,244.95,245.92h0a0,0,0,0,1,0,0V0A0,0,0,0,1,244.95,0Z" transform="translate(734.84 245.92) rotate(180)"/><path class="cls-2" d="M0,245.73H0A244.95,244.95,0,0,1,244.95,490.67v1a0,0,0,0,1,0,0H0a0,0,0,0,1,0,0V245.73A0,0,0,0,1,0,245.73Z" transform="translate(244.95 737.37) rotate(-180)"/></g></g></svg>