<svg xmlns="http://www.w3.org/2000/svg" viewBox="0 0 489.89 246.11"><defs><style>.cls-1{fill:#0468bf;}.cls-2{fill:#f0e5d0;}</style></defs><g id="Layer_2" data-name="Layer 2"><g id="Layout"><path class="cls-1" d="M0,.19H244.95a0,0,0,0,1,0,0v1A244.95,244.95,0,0,1,0,246.11H0a0,0,0,0,1,0,0V.19A0,0,0,0,1,0,.19Z" transform="translate(244.95 246.3) rotate(-180)"/><path class="cls-2" d="M244.95,0h0A244.95,244.95,0,0,1,489.89,244.95v1a0,0,0,0,1,0,0H244.95a0,0,0,0,1,0,0V0A0,0,0,0,1,244.95,0Z"/></g></g></svg>