<svg xmlns="http://www.w3.org/2000/svg" viewBox="0 0 275.88 213.65"><defs><style>.cls-1{font-size:73.28px;font-family:Montserrat-Bold, Montserrat;font-weight:700;}.cls-1,.cls-3{fill:#09007e;}.cls-2{letter-spacing:-0.01em;}.cls-4{fill:#0067c5;}</style></defs><g id="Layer_2" data-name="Layer 2"><g id="Layer_1-2" data-name="Layer 1"><text class="cls-1" transform="translate(0.37 195.33)">AS<tspan class="cls-2" x="101.34" y="0">P</tspan><tspan x="150.29" y="0">IRE</tspan></text><path class="cls-3" d="M99.88,84,92,91.82,60.87,60.66,92,29.49l22.59,22.59,14.75-14.74L92,0,31.38,60.66,92,121.31,129.37,84h0A20.84,20.84,0,0,0,99.88,84Z"/><rect class="cls-4" x="127.53" y="50.24" width="20.83" height="20.83" transform="translate(-2.49 115.31) rotate(-45)"/><path class="cls-3" d="M176,37.33l7.84-7.84L215,60.66,183.85,91.82,161.26,69.23,146.52,84l37.33,37.33,60.66-60.65L183.85,0,146.52,37.33h0A20.84,20.84,0,0,0,176,37.33Z"/></g></g></svg>