<svg xmlns="http://www.w3.org/2000/svg" viewBox="0 0 213.13 121.31"><defs><style>.cls-1{fill:#09007e;}.cls-2{fill:#0067c5;}</style></defs><g id="Layer_2" data-name="Layer 2"><g id="Layer_1-2" data-name="Layer 1"><path class="cls-1" d="M68.5,84l-7.84,7.84L29.49,60.66,60.66,29.49,83.25,52.08,98,37.34,60.66,0,0,60.66l60.66,60.65L98,84h0A20.84,20.84,0,0,0,68.5,84Z"/><rect class="cls-2" x="96.15" y="50.24" width="20.83" height="20.83" transform="translate(-11.68 93.12) rotate(-45)"/><path class="cls-1" d="M144.63,37.33l7.85-7.84,31.16,31.17L152.48,91.82,129.89,69.23,115.14,84l37.34,37.33,60.65-60.65L152.48,0,115.14,37.33h0A20.84,20.84,0,0,0,144.63,37.33Z"/></g></g></svg>