<?xml version="1.0" encoding="utf-8"?>
<!-- Generator: Adobe Illustrator 25.0.1, SVG Export Plug-In . SVG Version: 6.00 Build 0)  -->
<svg version="1.1" id="Layer_10" xmlns="http://www.w3.org/2000/svg" xmlns:xlink="http://www.w3.org/1999/xlink" x="0px" y="0px"
	 viewBox="0 0 1150 1020" style="enable-background:new 0 0 1150 1020;" xml:space="preserve">
<style type="text/css">
	.st0{fill:#0468BF;}
	.st1{fill:#EDD107;}
	.st2{fill:#F29F05;}
	.st3{fill:#F0E5D0;}
	.st4{fill:#02D2DE;}
	.st5{fill:#FFFFFF;}
	.st6{fill:#000079;}
	.st7{fill:#EEC906;}
	.st8{fill:#39D4FA;}
</style>
<g>
	<path class="st2" d="M919.84,1020H689.77V495.39c0-62.98,51.06-114.03,114.03-114.03h2c62.98,0,114.03,51.06,114.03,114.03V1020z"
		/>
	<path class="st0" d="M919.93,381.36H1150v524.61c0,62.98-51.06,114.03-114.04,114.03h-2c-62.98,0-114.03-51.06-114.03-114.03
		V381.36z"/>
	<path class="st2" d="M227.89,638.99h4c125.86,0,227.89,102.03,227.89,227.89V1020H0l0-153.11C0,741.02,102.03,638.99,227.89,638.99
		z"/>
	<path class="st4" d="M687.86,638.99h2V1020H459.96V866.89C459.96,741.02,562,638.99,687.86,638.99z"/>
	<path class="st5" d="M689.86,638.99h2c125.86,0,227.89,102.03,227.89,227.89V1020H689.86V638.99z"/>
	<path class="st0" d="M459.79,0h230.07v524.61c0,62.98-51.06,114.04-114.03,114.04h-2c-62.98,0-114.03-51.06-114.03-114.04V0z"/>
	<path class="st1" d="M345.93,1020h-2c-62.98,0-114.03-51.06-114.03-114.03V618.06c0-62.98,51.06-114.04,114.03-114.04h2
		c62.98,0,114.03,51.06,114.03,114.04v287.91C459.96,968.94,408.91,1020,345.93,1020z"/>
	<path class="st4" d="M919.93,0H1150v524.61c0,62.98-51.06,114.04-114.04,114.04h-2c-62.98,0-114.03-51.06-114.03-114.04V0z"/>
	<path class="st1" d="M461.96,342.31h-2l0-342.31l229.89,0l0,114.42C689.86,240.28,587.83,342.31,461.96,342.31z"/>
	<path class="st5" d="M459.96,342.31h-2c-125.86,0-227.89-102.03-227.89-227.89l0-114.42l229.89,0L459.96,342.31z"/>
</g>
</svg>
