<?xml version="1.0" encoding="utf-8"?>
<!-- Generator: Adobe Illustrator 25.0.1, SVG Export Plug-In . SVG Version: 6.00 Build 0)  -->
<svg version="1.1" id="Layer_10" xmlns="http://www.w3.org/2000/svg" xmlns:xlink="http://www.w3.org/1999/xlink" x="0px" y="0px"
	 viewBox="0 0 915 950" style="enable-background:new 0 0 915 950;" xml:space="preserve">
<style type="text/css">
	.st0{fill:#0468BF;}
	.st1{fill:#EDD107;}
	.st2{fill:#F29F05;}
	.st3{fill:#F0E5D0;}
	.st4{fill:#02D2DE;}
	.st5{fill:#FFFFFF;}
	.st6{fill:#000079;}
	.st7{fill:#EEC906;}
	.st8{fill:#39D4FA;}
</style>
<g>
	<rect x="365.99" y="675.02" class="st3" width="274.5" height="274.98"/>
	<rect x="640.5" y="337.36" class="st3" width="274.5" height="274.98"/>
	<rect x="365.99" y="0" class="st3" width="274.5" height="274.98"/>
	<rect x="403.41" y="475" class="st6" width="199.67" height="200.02"/>
	<ellipse class="st6" cx="781.66" cy="474.85" rx="109.66" ry="109.85"/>
	<ellipse class="st4" cx="192.32" cy="475" rx="192.32" ry="192.65"/>
	<g>
		<path class="st6" d="M497.98,818.21h107.36V806.9c0-53.14-43.08-96.22-96.22-96.22h-11.13V818.21z"/>
		<path class="st0" d="M401.15,891.22h107.36V879.9c0-53.14-43.08-96.22-96.22-96.22h-11.13V891.22z"/>
	</g>
	<g>
		<path class="st6" d="M192.32,254.55H45.75v-0.26c0-80.95,65.62-146.57,146.57-146.57h0V254.55z"/>
		<path class="st0" d="M192.32,107.73h146.57v0.26c0,80.95-65.62,146.57-146.57,146.57h0V107.73z"/>
	</g>
	<path class="st4" d="M503.24,643.2L503.24,643.2c-23.58,0-42.69-19.11-42.69-42.69v-51.01c0-23.58,19.11-42.69,42.69-42.69h0
		c23.58,0,42.69,19.11,42.69,42.69v51.01C545.94,624.09,526.82,643.2,503.24,643.2z"/>
	<rect x="533.04" y="25.46" class="st2" width="67.27" height="228.37"/>
	<rect x="640.5" y="0" class="st6" width="274.5" height="337.36"/>
	<rect x="640.5" y="612.34" class="st2" width="274.5" height="337.66"/>
	<rect x="403.41" y="274.98" class="st7" width="199.67" height="200.02"/>
	<path class="st1" d="M398.91,139.65c0,62.89,50.89,113.87,113.67,113.87V25.78C449.81,25.78,398.91,76.76,398.91,139.65z"/>
	<path class="st2" d="M479.33,320.53c-31.91,27.12-35.83,75.03-8.75,106.99l115.56-98.23C559.06,297.33,511.24,293.4,479.33,320.53z
		"/>
	<path class="st3" d="M915,938.75L915,938.75c-85.75,0-155.27-69.52-155.27-155.27v-0.27l155.27,0L915,938.75z"/>
	<path class="st4" d="M915,627.67L915,627.67c-85.75,0-155.27,69.52-155.27,155.27v0.27l155.27,0L915,627.67z"/>
	<path class="st4" d="M640.5,13.8L640.5,13.8c85.75,0,155.27,69.52,155.27,155.27v0.27l-155.27,0L640.5,13.8z"/>
	<path class="st7" d="M640.5,324.88L640.5,324.88c85.75,0,155.27-69.52,155.27-155.27v-0.27l-155.27,0L640.5,324.88z"/>
	<path class="st2" d="M365.99,950H183.82v-0.32c0-100.61,81.56-182.17,182.17-182.17h0V950z"/>
</g>
</svg>
