<?xml version="1.0" encoding="utf-8"?>
<!-- Generator: Adobe Illustrator 25.0.1, SVG Export Plug-In . SVG Version: 6.00 Build 0)  -->
<svg version="1.1" id="Layer_10" xmlns="http://www.w3.org/2000/svg" xmlns:xlink="http://www.w3.org/1999/xlink" x="0px" y="0px"
	 viewBox="0 0 1020 950" style="enable-background:new 0 0 1020 950;" xml:space="preserve">
<style type="text/css">
	.st0{fill:#0468BF;}
	.st1{fill:#EDD107;}
	.st2{fill:#F29F05;}
	.st3{fill:#F0E5D0;}
	.st4{fill:#02D2DE;}
	.st5{fill:#FFFFFF;}
	.st6{fill:#000079;}
	.st7{fill:#EEC906;}
	.st8{fill:#39D4FA;}
</style>
<g>
	<ellipse class="st1" cx="426.88" cy="351.64" rx="62.64" ry="62.46"/>
	<path class="st0" d="M332.21,699.44H0l0-0.28C0,516.37,148.18,368.2,330.96,368.2h1.25V699.44z"/>
	<path class="st5" d="M810.95,282.57H574.9v-7.79c0-125.69,101.89-227.58,227.58-227.58h8.48V282.57z"/>
	<path class="st1" d="M329.28,132.83H93.22v7.79c0,125.69,101.89,227.58,227.58,227.58h8.48V132.83z"/>
	<rect x="503.31" y="581.43" class="st1" width="121.49" height="121.13"/>
	<path class="st4" d="M253.71,950h-0.59c-43.35,0-78.5-35.14-78.5-78.5v-93.56c0-43.35,35.14-78.5,78.5-78.5h0.59
		c43.35,0,78.5,35.14,78.5,78.5v93.56C332.21,914.86,297.07,950,253.71,950z"/>
	<rect x="446.03" y="699.44" class="st2" width="236.06" height="250.56"/>
	<path class="st5" d="M337.86,699.44h-5.65V542.59h157.31v5.19C489.52,631.54,421.62,699.44,337.86,699.44z"/>
	<path class="st2" d="M489.52,542.59h-4.63c-68.62,0-124.24-55.62-124.24-124.24v-4.25h128.87V542.59z"/>
	<path class="st5" d="M810.95,827.94h-4.63c-68.62,0-124.24-55.62-124.24-124.24v-4.25h128.87V827.94z"/>
	<ellipse class="st4" cx="810.95" cy="491" rx="209.05" ry="208.44"/>
	<ellipse class="st1" cx="586.15" cy="62.46" rx="62.64" ry="62.46"/>
</g>
</svg>
