<svg xmlns="http://www.w3.org/2000/svg" viewBox="0 0 497.74 250.04"><defs><style>.cls-1{fill:#f0e5d0;}.cls-2{fill:#eec906;}</style></defs><g id="Layer_2" data-name="Layer 2"><g id="Layout"><path class="cls-1" d="M247.93,0h0A249.81,249.81,0,0,1,497.74,249.81V250a0,0,0,0,1,0,0H247.93a0,0,0,0,1,0,0V0A0,0,0,0,1,247.93,0Z"/><path class="cls-2" d="M0,0H0A249.81,249.81,0,0,1,249.81,249.81V250a0,0,0,0,1,0,0H0a0,0,0,0,1,0,0V0A0,0,0,0,1,0,0Z" transform="translate(249.81 250.04) rotate(180)"/></g></g></svg>