<svg xmlns="http://www.w3.org/2000/svg" viewBox="0 0 157.31 410.27"><defs><style>.cls-1{fill:#edd107;}.cls-2{fill:#fff;}.cls-3{fill:#f29f05;}</style></defs><g id="Layer_2" data-name="Layer 2"><g id="Layout"><ellipse class="cls-1" cx="94.67" cy="62.46" rx="62.64" ry="62.46"/><path class="cls-2" d="M0,253.41H157.31a0,0,0,0,1,0,0v5.19A151.66,151.66,0,0,1,5.65,410.27H0a0,0,0,0,1,0,0V253.41A0,0,0,0,1,0,253.41Z"/><path class="cls-3" d="M28.44,124.92H157.31a0,0,0,0,1,0,0V253.41a0,0,0,0,1,0,0h-4.63A124.24,124.24,0,0,1,28.44,129.17v-4.25a0,0,0,0,1,0,0Z"/></g></g></svg>