<svg width="87" height="74" viewBox="0 0 87 74" fill="none" xmlns="http://www.w3.org/2000/svg">
<path d="M86.8601 30.25H1.03609e-05C-0.00393066 35.9572 1.11646 41.6095 3.29689 46.8838C5.47731 52.1581 8.67517 56.9512 12.708 60.9896C16.7409 65.028 21.5297 68.2326 26.801 70.4203C32.0723 72.6081 37.7229 73.7361 43.4302 73.7401C49.1374 73.7361 54.788 72.6081 60.0593 70.4203C65.3306 68.2326 70.1193 65.028 74.1521 60.9896C78.185 56.9512 81.3831 52.1581 83.5635 46.8838C85.7439 41.6095 86.8641 35.9572 86.8601 30.25Z" fill="#0468BF"/>
<path d="M68.76 0H18.0901C18.0888 3.32901 18.7431 6.62568 20.0159 9.70178C21.2886 12.7779 23.1548 15.5732 25.5078 17.9281C27.8609 20.283 30.6546 22.1513 33.7297 23.4265C36.8048 24.7017 40.1012 25.3587 43.4302 25.36C46.7587 25.3587 50.0544 24.7017 53.1289 23.4264C56.2034 22.1511 58.9966 20.2825 61.3489 17.9275C63.7011 15.5725 65.5662 12.7771 66.8379 9.70105C68.1095 6.625 68.7626 3.32854 68.76 0Z" fill="#0468BF"/>
</svg>
