<?xml version="1.0" encoding="utf-8"?>
<!-- Generator: Adobe Illustrator 25.0.1, SVG Export Plug-In . SVG Version: 6.00 Build 0)  -->
<svg version="1.1" id="Main" xmlns="http://www.w3.org/2000/svg" xmlns:xlink="http://www.w3.org/1999/xlink" x="0px" y="0px"
	 viewBox="0 0 230 230" style="enable-background:new 0 0 230 230;" xml:space="preserve">
<style type="text/css">
	.st0{fill:#0468BF;}
	.st1{fill:#EDD107;}
	.st2{fill:#F29F05;}
	.st3{fill:#F0E5D0;}
	.st4{fill:#02D2DE;}
	.st5{fill:#FFFFFF;}
	.st6{fill:#000079;}
	.st7{fill:#EEC906;}
	.st8{fill:#39D4FA;}
	.st9{fill:none;stroke:#EEC906;stroke-width:3;stroke-linecap:round;stroke-linejoin:round;stroke-miterlimit:10;}
	.st10{fill:none;stroke:#FFFFFF;stroke-width:2;stroke-linecap:round;stroke-linejoin:round;stroke-miterlimit:10;}
</style>
<g>
	<path class="st5" d="M115,2c30.18,0,58.56,11.75,79.9,33.1C216.25,56.44,228,84.82,228,115s-11.75,58.56-33.1,79.9
		C173.56,216.25,145.18,228,115,228s-58.56-11.75-79.9-33.1C13.75,173.56,2,145.18,2,115s11.75-58.56,33.1-79.9
		C56.44,13.75,84.82,2,115,2 M115,0C51.49,0,0,51.49,0,115s51.49,115,115,115s115-51.49,115-115S178.51,0,115,0L115,0z"/>
</g>
</svg>
