<?xml version="1.0" encoding="utf-8"?>
<!-- Generator: Adobe Illustrator 25.0.1, SVG Export Plug-In . SVG Version: 6.00 Build 0)  -->
<svg version="1.1" id="Main" xmlns="http://www.w3.org/2000/svg" xmlns:xlink="http://www.w3.org/1999/xlink" x="0px" y="0px"
	 viewBox="0 0 30 30" style="enable-background:new 0 0 30 30;" xml:space="preserve">
<style type="text/css">
	.st0{fill:#0468BF;}
	.st1{fill:#EDD107;}
	.st2{fill:#F29F05;}
	.st3{fill:#F0E5D0;}
	.st4{fill:#02D2DE;}
	.st5{fill:#FFFFFF;}
	.st6{fill:#000079;}
	.st7{fill:#EEC906;}
	.st8{fill:#39D4FA;}
	.st9{fill:none;stroke:#EEC906;stroke-width:3;stroke-linecap:round;stroke-linejoin:round;stroke-miterlimit:10;}
	.st10{fill:none;stroke:#FFFFFF;stroke-width:2;stroke-linecap:round;stroke-linejoin:round;stroke-miterlimit:10;}
	.st11{fill:none;stroke:#000000;stroke-width:2;stroke-miterlimit:10;}
	.st12{fill:#000079;stroke:#000000;stroke-width:2;stroke-miterlimit:10;}
	.st13{fill:none;stroke:#000000;stroke-width:5;stroke-miterlimit:10;}
</style>
<g>
	<path class="st7" d="M22.74,5.6c-0.95,0-1.71,0.77-1.71,1.71c0,0.95,0.77,1.71,1.71,1.71s1.71-0.77,1.71-1.71
		C24.45,6.37,23.68,5.6,22.74,5.6z"/>
	<path class="st7" d="M20.83,0.39H9.17c-4.84,0-8.78,3.94-8.78,8.78v11.67c0,4.84,3.94,8.78,8.78,8.78h11.67
		c4.84,0,8.78-3.94,8.78-8.78V9.17C29.61,4.32,25.67,0.39,20.83,0.39z M26.86,20.83c0,3.32-2.7,6.03-6.03,6.03H9.17
		c-3.33,0-6.03-2.7-6.03-6.03V9.17c0-3.32,2.7-6.03,6.03-6.03h11.67c3.32,0,6.03,2.7,6.03,6.03V20.83z"/>
	<path class="st7" d="M15.12,7.8c-3.97,0-7.2,3.23-7.2,7.2c0,3.97,3.23,7.2,7.2,7.2s7.2-3.23,7.2-7.2
		C22.32,11.03,19.09,7.8,15.12,7.8z M15.12,19.61c-2.54,0-4.61-2.07-4.61-4.61c0-2.54,2.07-4.61,4.61-4.61
		c2.54,0,4.61,2.07,4.61,4.61C19.73,17.54,17.66,19.61,15.12,19.61z"/>
</g>
</svg>
