<?xml version="1.0" encoding="utf-8"?>
<!-- Generator: Adobe Illustrator 25.0.1, SVG Export Plug-In . SVG Version: 6.00 Build 0)  -->
<svg version="1.1" id="Main" xmlns="http://www.w3.org/2000/svg" xmlns:xlink="http://www.w3.org/1999/xlink" x="0px" y="0px"
	 viewBox="0 0 30 30" style="enable-background:new 0 0 30 30;" xml:space="preserve">
<style type="text/css">
	.st0{fill:#0468BF;}
	.st1{fill:#EDD107;}
	.st2{fill:#F29F05;}
	.st3{fill:#F0E5D0;}
	.st4{fill:#02D2DE;}
	.st5{fill:#FFFFFF;}
	.st6{fill:#000079;}
	.st7{fill:#EEC906;}
	.st8{fill:#39D4FA;}
	.st9{fill:none;stroke:#EEC906;stroke-width:3;stroke-linecap:round;stroke-linejoin:round;stroke-miterlimit:10;}
	.st10{fill:none;stroke:#FFFFFF;stroke-width:2;stroke-linecap:round;stroke-linejoin:round;stroke-miterlimit:10;}
	.st11{fill:none;stroke:#000000;stroke-width:2;stroke-miterlimit:10;}
	.st12{fill:#000079;stroke:#000000;stroke-width:2;stroke-miterlimit:10;}
	.st13{fill:none;stroke:#000000;stroke-width:5;stroke-miterlimit:10;}
</style>
<g>
	<rect x="1.38" y="10.28" class="st7" width="5.85" height="18.78"/>
	<path class="st7" d="M4.3,7.71c-1.87,0-3.39-1.52-3.39-3.39c0-1.87,1.51-3.38,3.39-3.38c1.87,0,3.38,1.52,3.38,3.38
		C7.68,6.19,6.17,7.71,4.3,7.71z"/>
	<path class="st7" d="M29.09,29.06h-5.83v-9.13c0-2.18-0.04-4.98-3.03-4.98c-3.04,0-3.5,2.37-3.5,4.82v9.29h-5.83V10.28h5.6v2.57
		h0.08c0.78-1.48,2.68-3.03,5.53-3.03c5.91,0,7,3.89,7,8.94V29.06z"/>
</g>
</svg>
