<?xml version="1.0" encoding="utf-8"?>
<!-- Generator: Adobe Illustrator 25.0.1, SVG Export Plug-In . SVG Version: 6.00 Build 0)  -->
<svg version="1.1" id="Main" xmlns="http://www.w3.org/2000/svg" xmlns:xlink="http://www.w3.org/1999/xlink" x="0px" y="0px"
	 viewBox="0 0 30 30" style="enable-background:new 0 0 30 30;" xml:space="preserve">
<style type="text/css">
	.st0{fill:#0468BF;}
	.st1{fill:#EDD107;}
	.st2{fill:#F29F05;}
	.st3{fill:#F0E5D0;}
	.st4{fill:#02D2DE;}
	.st5{fill:#FFFFFF;}
	.st6{fill:#000079;}
	.st7{fill:#EEC906;}
	.st8{fill:#39D4FA;}
	.st9{fill:none;stroke:#EEC906;stroke-width:3;stroke-linecap:round;stroke-linejoin:round;stroke-miterlimit:10;}
	.st10{fill:none;stroke:#FFFFFF;stroke-width:2;stroke-linecap:round;stroke-linejoin:round;stroke-miterlimit:10;}
	.st11{fill:none;stroke:#000000;stroke-width:2;stroke-miterlimit:10;}
	.st12{fill:#000079;stroke:#000000;stroke-width:2;stroke-miterlimit:10;}
	.st13{fill:none;stroke:#000000;stroke-width:5;stroke-miterlimit:10;}
</style>
<path class="st7" d="M29.57,5.91c0,0.08,0,0.26-0.15,0.46C28.73,7.29,28,8.11,27.08,8.8c-0.13,0.1-0.35,0.2-0.35,0.39
	c0,4.81-1.23,9.62-4.74,13.1c-4.47,4.44-11.17,5.64-17.11,4c-1.15-0.32-2.25-0.76-3.31-1.32c-0.35-0.19-0.69-0.39-1.03-0.61
	c-0.09-0.07-0.15-0.13-0.08-0.18c0.07-0.04,0.13-0.04,0.39,0c1.66,0.16,3.38-0.08,4.95-0.63c0.87-0.3,2.72-0.91,3.26-1.73
	c0.01-0.02,0.03-0.02,0.04-0.04c-0.22-0.05-0.43-0.05-0.65-0.09c-1.62-0.46-3.77-1.27-4.77-4c-0.06-0.16,0-0.24,0.17-0.21
	c1.33,0.1,1.81,0.03,2.27-0.07c-0.26-0.04-0.53-0.13-0.77-0.24c-2.04-0.77-3.52-2.76-3.79-4.91c-0.03-0.25-0.05-0.46-0.04-0.69
	c0.01-0.16,0.08-0.21,0.22-0.12c1.05,0.54,2.22,0.67,2.32,0.65c-0.26-0.2-0.5-0.43-0.74-0.65C1.56,9.79,0.87,6.38,2.28,4.27
	C2.4,4.09,2.48,4.09,2.62,4.25c3.23,3.68,7.21,5.4,12,6.11c0.13,0.02,0.14,0,0.12-0.14c-0.12-0.85-0.14-1.67,0.06-2.51
	c0.21-0.87,0.63-1.68,1.19-2.38c0.54-0.67,1.22-1.22,1.99-1.62c0.76-0.4,1.6-0.64,2.46-0.7c0.88-0.06,1.78,0.08,2.6,0.42
	c0.62,0.25,1.18,0.6,1.69,1.04c0.11,0.09,0.2,0.2,0.31,0.31c0.06,0.06,0.14,0.09,0.24,0.06c1.23-0.31,2.38-0.74,3.49-1.34
	c0.05-0.03,0.09-0.04,0.16-0.01c0.05,0.04,0.03,0.1,0.01,0.15c-0.2,0.65-0.55,1.25-0.98,1.78c-0.28,0.35-0.97,1.21-1.45,1.28
	c1-0.17,2.02-0.42,2.95-0.84c0.12-0.05,0.12-0.08,0.12,0C29.57,5.88,29.57,5.9,29.57,5.91z"/>
</svg>
