<?xml version="1.0" encoding="utf-8"?>
<!-- Generator: Adobe Illustrator 25.0.1, SVG Export Plug-In . SVG Version: 6.00 Build 0)  -->
<svg version="1.1" id="Main" xmlns="http://www.w3.org/2000/svg" xmlns:xlink="http://www.w3.org/1999/xlink" x="0px" y="0px"
	 viewBox="0 0 30 30" style="enable-background:new 0 0 30 30;" xml:space="preserve">
<style type="text/css">
	.st0{fill:#0468BF;}
	.st1{fill:#EDD107;}
	.st2{fill:#F29F05;}
	.st3{fill:#F0E5D0;}
	.st4{fill:#02D2DE;}
	.st5{fill:#FFFFFF;}
	.st6{fill:#000079;}
	.st7{fill:#EEC906;}
	.st8{fill:#39D4FA;}
	.st9{fill:none;stroke:#EEC906;stroke-width:3;stroke-linecap:round;stroke-linejoin:round;stroke-miterlimit:10;}
	.st10{fill:none;stroke:#FFFFFF;stroke-width:2;stroke-linecap:round;stroke-linejoin:round;stroke-miterlimit:10;}
	.st11{fill:none;stroke:#000000;stroke-width:2;stroke-miterlimit:10;}
	.st12{fill:#000079;stroke:#000000;stroke-width:2;stroke-miterlimit:10;}
	.st13{fill:none;stroke:#000000;stroke-width:5;stroke-miterlimit:10;}
</style>
<path class="st7" d="M21.82,5.04c0,0.2-0.17,0.37-0.37,0.37H18.5c-0.72,0-1.31,0.59-1.31,1.31V9.8h4.19c0.22,0,0.39,0.19,0.37,0.4
	l-0.37,4.34c-0.02,0.19-0.18,0.34-0.37,0.34H17.2V29.3c0,0.2-0.17,0.37-0.37,0.37h-5.27c-0.2,0-0.37-0.17-0.37-0.37V15.12v-0.23
	H8.55c-0.2,0-0.37-0.17-0.37-0.37v-4.34c0-0.2,0.17-0.37,0.37-0.37h2.63V5.61c0-2.92,2.37-5.29,5.29-5.29h4.97
	c0.2,0,0.37,0.17,0.37,0.37V5.04z"/>
</svg>
