<?xml version="1.0" encoding="utf-8"?>
<!-- Generator: Adobe Illustrator 25.0.1, SVG Export Plug-In . SVG Version: 6.00 Build 0)  -->
<svg version="1.1" id="Main" xmlns="http://www.w3.org/2000/svg" xmlns:xlink="http://www.w3.org/1999/xlink" x="0px" y="0px"
	 viewBox="0 0 60 60" style="enable-background:new 0 0 60 60;" xml:space="preserve">
<style type="text/css">
	.st0{fill:#0468BF;}
	.st1{fill:#EDD107;}
	.st2{fill:#F29F05;}
	.st3{fill:#F0E5D0;}
	.st4{fill:#02D2DE;}
	.st5{fill:#FFFFFF;}
	.st6{fill:#000079;}
	.st7{fill:#EEC906;}
	.st8{fill:#39D4FA;}
	.st9{fill:none;stroke:#EEC906;stroke-width:3;stroke-linecap:round;stroke-linejoin:round;stroke-miterlimit:10;}
	.st10{fill:none;stroke:#FFFFFF;stroke-width:2;stroke-linecap:round;stroke-linejoin:round;stroke-miterlimit:10;}
	.st11{fill:none;stroke:#000000;stroke-width:2;stroke-miterlimit:10;}
	.st12{fill:#000079;stroke:#000000;stroke-width:2;stroke-miterlimit:10;}
	.st13{fill:none;stroke:#000000;stroke-width:5;stroke-miterlimit:10;}
</style>
<g>
	<g>
		<circle class="st7" cx="30" cy="30" r="28.43"/>
	</g>
	<g>
		<rect x="19" y="26.19" width="4.72" height="15.16"/>
		<path d="M21.36,24.12c-1.51,0-2.74-1.23-2.74-2.73c0-1.51,1.22-2.73,2.74-2.73c1.51,0,2.73,1.22,2.73,2.73
			C24.1,22.89,22.87,24.12,21.36,24.12z"/>
		<path d="M41.37,41.35h-4.71v-7.37c0-1.76-0.03-4.02-2.45-4.02c-2.45,0-2.83,1.92-2.83,3.89v7.5h-4.71V26.19h4.52v2.07h0.06
			c0.63-1.19,2.17-2.45,4.46-2.45c4.77,0,5.65,3.14,5.65,7.22V41.35z"/>
	</g>
</g>
</svg>
