<?xml version="1.0" encoding="utf-8"?>
<!-- Generator: Adobe Illustrator 25.0.1, SVG Export Plug-In . SVG Version: 6.00 Build 0)  -->
<svg version="1.1" id="Main" xmlns="http://www.w3.org/2000/svg" xmlns:xlink="http://www.w3.org/1999/xlink" x="0px" y="0px"
	 viewBox="0 0 60 60" style="enable-background:new 0 0 60 60;" xml:space="preserve">
<style type="text/css">
	.st0{fill:#0468BF;}
	.st1{fill:#EDD107;}
	.st2{fill:#F29F05;}
	.st3{fill:#F0E5D0;}
	.st4{fill:#02D2DE;}
	.st5{fill:#FFFFFF;}
	.st6{fill:#000079;}
	.st7{fill:#EEC906;}
	.st8{fill:#39D4FA;}
	.st9{fill:none;stroke:#EEC906;stroke-width:3;stroke-linecap:round;stroke-linejoin:round;stroke-miterlimit:10;}
	.st10{fill:none;stroke:#FFFFFF;stroke-width:2;stroke-linecap:round;stroke-linejoin:round;stroke-miterlimit:10;}
	.st11{fill:none;stroke:#000000;stroke-width:2;stroke-miterlimit:10;}
	.st12{fill:#000079;stroke:#000000;stroke-width:2;stroke-miterlimit:10;}
	.st13{fill:none;stroke:#000000;stroke-width:5;stroke-miterlimit:10;}
</style>
<g>
	<g>
		<circle class="st7" cx="30" cy="30" r="28.43"/>
	</g>
	<path d="M42.37,22.28c0,0.06,0,0.22-0.13,0.39c-0.58,0.78-1.2,1.47-1.98,2.06c-0.11,0.08-0.3,0.17-0.3,0.33
		c0,4.08-1.04,8.16-4.02,11.12c-3.79,3.77-9.48,4.79-14.53,3.4c-0.98-0.27-1.91-0.65-2.81-1.12c-0.3-0.16-0.59-0.33-0.88-0.52
		c-0.07-0.06-0.13-0.11-0.06-0.15c0.06-0.03,0.11-0.03,0.33,0c1.41,0.14,2.87-0.07,4.2-0.54c0.73-0.26,2.31-0.77,2.77-1.47
		c0.01-0.02,0.02-0.02,0.03-0.03c-0.18-0.04-0.37-0.04-0.55-0.08c-1.37-0.39-3.2-1.08-4.05-3.39c-0.05-0.14,0-0.21,0.14-0.18
		c1.13,0.09,1.54,0.03,1.93-0.06c-0.22-0.04-0.45-0.11-0.65-0.2c-1.73-0.66-2.99-2.34-3.22-4.17c-0.03-0.21-0.04-0.39-0.03-0.58
		c0.01-0.14,0.07-0.18,0.19-0.1c0.89,0.46,1.89,0.57,1.97,0.55c-0.22-0.17-0.43-0.36-0.63-0.55c-1.5-1.42-2.08-4.31-0.88-6.11
		c0.1-0.15,0.16-0.15,0.28-0.01c2.74,3.12,6.12,4.58,10.19,5.19c0.11,0.02,0.12,0,0.1-0.12c-0.11-0.72-0.12-1.42,0.05-2.13
		c0.18-0.74,0.53-1.43,1.01-2.02c0.46-0.57,1.04-1.04,1.69-1.38c0.65-0.34,1.36-0.54,2.09-0.59c0.75-0.05,1.51,0.07,2.2,0.35
		c0.53,0.22,1,0.51,1.44,0.88c0.09,0.08,0.17,0.17,0.26,0.27c0.05,0.05,0.12,0.08,0.2,0.05c1.04-0.26,2.02-0.63,2.97-1.13
		c0.04-0.02,0.08-0.03,0.13-0.01c0.04,0.03,0.03,0.09,0.01,0.13c-0.17,0.55-0.47,1.06-0.83,1.51c-0.24,0.29-0.83,1.02-1.23,1.09
		c0.85-0.14,1.72-0.36,2.5-0.71c0.1-0.05,0.1-0.07,0.1,0C42.37,22.26,42.37,22.27,42.37,22.28z"/>
</g>
</svg>
