<?xml version="1.0" encoding="utf-8"?>
<!-- Generator: Adobe Illustrator 25.0.1, SVG Export Plug-In . SVG Version: 6.00 Build 0)  -->
<svg version="1.1" id="Main" xmlns="http://www.w3.org/2000/svg" xmlns:xlink="http://www.w3.org/1999/xlink" x="0px" y="0px"
	 viewBox="0 0 60 60" style="enable-background:new 0 0 60 60;" xml:space="preserve">
<style type="text/css">
	.st0{fill:#0468BF;}
	.st1{fill:#EDD107;}
	.st2{fill:#F29F05;}
	.st3{fill:#F0E5D0;}
	.st4{fill:#02D2DE;}
	.st5{fill:#FFFFFF;}
	.st6{fill:#000079;}
	.st7{fill:#EEC906;}
	.st8{fill:#39D4FA;}
	.st9{fill:none;stroke:#EEC906;stroke-width:3;stroke-linecap:round;stroke-linejoin:round;stroke-miterlimit:10;}
	.st10{fill:none;stroke:#FFFFFF;stroke-width:2;stroke-linecap:round;stroke-linejoin:round;stroke-miterlimit:10;}
	.st11{fill:none;stroke:#000000;stroke-width:2;stroke-miterlimit:10;}
	.st12{fill:#000079;stroke:#000000;stroke-width:2;stroke-miterlimit:10;}
	.st13{fill:none;stroke:#000000;stroke-width:5;stroke-miterlimit:10;}
</style>
<g>
	<g>
		<circle class="st7" cx="30" cy="30" r="28.43"/>
	</g>
	<path d="M36.59,20.37c0,0.2-0.16,0.36-0.36,0.36h-2.85c-0.7,0-1.27,0.57-1.27,1.26v2.98h4.05c0.21,0,0.37,0.18,0.36,0.39l-0.36,4.2
		c-0.02,0.18-0.17,0.33-0.36,0.33h-3.69v13.95c0,0.2-0.16,0.36-0.36,0.36h-5.1c-0.2,0-0.36-0.16-0.36-0.36V30.11v-0.22h-2.55
		c-0.2,0-0.36-0.16-0.36-0.36v-4.2c0-0.2,0.16-0.36,0.36-0.36h2.55v-4.05c0-2.82,2.29-5.11,5.11-5.11h4.81
		c0.2,0,0.36,0.16,0.36,0.36V20.37z"/>
</g>
</svg>
