<svg xmlns="http://www.w3.org/2000/svg" viewBox="0 0 204.18 180.54"><defs><style>.cls-1{fill:#000079;}.cls-2{fill:#0468bf;}</style></defs><g id="Layer_2" data-name="Layer 2"><g id="Layout"><path class="cls-1" d="M96.82,0H204.18a0,0,0,0,1,0,0V107.54a0,0,0,0,1,0,0H193A96.22,96.22,0,0,1,96.82,11.32V0A0,0,0,0,1,96.82,0Z" transform="translate(301 107.54) rotate(180)"/><path class="cls-2" d="M0,73H107.36a0,0,0,0,1,0,0V180.54a0,0,0,0,1,0,0H96.22A96.22,96.22,0,0,1,0,84.32V73A0,0,0,0,1,0,73Z" transform="translate(107.36 253.54) rotate(180)"/></g></g></svg>