<svg xmlns="http://www.w3.org/2000/svg" viewBox="0 0 274.5 337.66"><defs><style>.cls-1{fill:#f29f05;}.cls-2{fill:#f0e5d0;}.cls-3{fill:#02d2de;}</style></defs><g id="Layer_2" data-name="Layer 2"><g id="Layout"><rect class="cls-1" width="274.5" height="337.66"/><path class="cls-2" d="M119.23,170.87H274.5a0,0,0,0,1,0,0V326.41a0,0,0,0,1,0,0h0A155.27,155.27,0,0,1,119.23,171.14v-.27a0,0,0,0,1,0,0Z"/><path class="cls-3" d="M274.5,15.32h0a0,0,0,0,1,0,0V170.87a0,0,0,0,1,0,0H119.23a0,0,0,0,1,0,0v-.27A155.27,155.27,0,0,1,274.5,15.32Z"/></g></g></svg>