<svg xmlns="http://www.w3.org/2000/svg" viewBox="0 0 293.13 146.82"><defs><style>.cls-1{fill:#000079;}.cls-2{fill:#0468bf;}</style></defs><g id="Layer_2" data-name="Layer 2"><g id="Layout"><path class="cls-1" d="M146.57,0h0a0,0,0,0,1,0,0V146.82a0,0,0,0,1,0,0H0a0,0,0,0,1,0,0v-.26A146.57,146.57,0,0,1,146.57,0Z"/><path class="cls-2" d="M293.13,0h0a0,0,0,0,1,0,0V146.82a0,0,0,0,1,0,0H146.57a0,0,0,0,1,0,0v-.26A146.57,146.57,0,0,1,293.13,0Z" transform="translate(439.7 146.82) rotate(180)"/></g></g></svg>