<svg xmlns="http://www.w3.org/2000/svg" viewBox="0 0 274.5 337.36"><defs><style>.cls-1{fill:#000079;}.cls-2{fill:#02d2de;}.cls-3{fill:#eec906;}</style></defs><g id="Layer_2" data-name="Layer 2"><g id="Layout"><rect class="cls-1" width="274.5" height="337.36"/><path class="cls-2" d="M0,13.8H155.27a0,0,0,0,1,0,0V169.34a0,0,0,0,1,0,0h0A155.27,155.27,0,0,1,0,14.07V13.8a0,0,0,0,1,0,0Z" transform="translate(155.27 183.13) rotate(180)"/><path class="cls-3" d="M155.27,169.34h0a0,0,0,0,1,0,0V324.88a0,0,0,0,1,0,0H0a0,0,0,0,1,0,0v-.27A155.27,155.27,0,0,1,155.27,169.34Z" transform="translate(155.27 494.22) rotate(180)"/></g></g></svg>