<?xml version="1.0" encoding="utf-8"?>
<!-- Generator: Adobe Illustrator 25.0.1, SVG Export Plug-In . SVG Version: 6.00 Build 0)  -->
<svg version="1.1" id="Main" xmlns="http://www.w3.org/2000/svg" xmlns:xlink="http://www.w3.org/1999/xlink" x="0px" y="0px"
	 viewBox="0 0 30 30" style="enable-background:new 0 0 30 30;" xml:space="preserve">
<style type="text/css">
	.st0{fill:#0468BF;}
	.st1{fill:#EDD107;}
	.st2{fill:#F29F05;}
	.st3{fill:#F0E5D0;}
	.st4{fill:#02D2DE;}
	.st5{fill:#FFFFFF;}
	.st6{fill:#000079;}
	.st7{fill:#EEC906;}
	.st8{fill:#39D4FA;}
	.st9{fill:none;stroke:#EEC906;stroke-width:3;stroke-linecap:round;stroke-linejoin:round;stroke-miterlimit:10;}
	.st10{fill:none;stroke:#FFFFFF;stroke-width:2;stroke-linecap:round;stroke-linejoin:round;stroke-miterlimit:10;}
	.st11{fill:none;stroke:#000000;stroke-width:2;stroke-miterlimit:10;}
	.st12{fill:#000079;stroke:#000000;stroke-width:2;stroke-miterlimit:10;}
	.st13{fill:none;stroke:#000000;stroke-width:5;stroke-miterlimit:10;}
</style>
<g>
	<path d="M24.05,9.19L15,17.16L5.95,9.19C5.59,8.87,5.04,8.91,4.73,9.27c-0.32,0.36-0.28,0.91,0.08,1.23l9.62,8.48
		c0.16,0.14,0.37,0.22,0.57,0.22s0.41-0.07,0.57-0.22l9.62-8.48c0.36-0.32,0.39-0.87,0.08-1.23C24.96,8.91,24.41,8.87,24.05,9.19
		L24.05,9.19z M24.05,9.19"/>
	<path d="M26.36,5.5H3.64C2.2,5.5,1.03,6.67,1.03,8.1V21.9c0,1.44,1.17,2.61,2.61,2.61h22.72c1.44,0,2.61-1.17,2.61-2.61V8.1
		C28.97,6.67,27.8,5.5,26.36,5.5L26.36,5.5z M27.23,21.9c0,0.48-0.39,0.87-0.87,0.87H3.64c-0.48,0-0.87-0.39-0.87-0.87V8.1
		c0-0.48,0.39-0.87,0.87-0.87h22.72c0.48,0,0.87,0.39,0.87,0.87V21.9z M27.23,21.9"/>
</g>
</svg>
