<?xml version="1.0" encoding="utf-8"?>
<!-- Generator: Adobe Illustrator 25.0.1, SVG Export Plug-In . SVG Version: 6.00 Build 0)  -->
<svg version="1.1" id="Main" xmlns="http://www.w3.org/2000/svg" xmlns:xlink="http://www.w3.org/1999/xlink" x="0px" y="0px"
	 viewBox="0 0 30 30" style="enable-background:new 0 0 30 30;" xml:space="preserve">
<style type="text/css">
	.st0{fill:#0468BF;}
	.st1{fill:#EDD107;}
	.st2{fill:#F29F05;}
	.st3{fill:#F0E5D0;}
	.st4{fill:#02D2DE;}
	.st5{fill:#FFFFFF;}
	.st6{fill:#000079;}
	.st7{fill:#EEC906;}
	.st8{fill:#39D4FA;}
	.st9{fill:none;stroke:#EEC906;stroke-width:3;stroke-linecap:round;stroke-linejoin:round;stroke-miterlimit:10;}
	.st10{fill:none;stroke:#FFFFFF;stroke-width:2;stroke-linecap:round;stroke-linejoin:round;stroke-miterlimit:10;}
	.st11{fill:none;stroke:#000000;stroke-width:2;stroke-miterlimit:10;}
	.st12{fill:#000079;stroke:#000000;stroke-width:2;stroke-miterlimit:10;}
	.st13{fill:none;stroke:#000000;stroke-width:5;stroke-miterlimit:10;}
</style>
<g>
	<path d="M24.12,5.68c-2.24-2.24-5.21-3.47-8.38-3.47c-0.52,0-0.94,0.42-0.94,0.94c0,0.52,0.42,0.94,0.94,0.94
		c2.66,0,5.17,1.04,7.05,2.92c1.88,1.88,2.92,4.39,2.92,7.05c0,0.52,0.42,0.94,0.94,0.94c0.52,0,0.94-0.42,0.94-0.94
		C27.59,10.9,26.36,7.92,24.12,5.68z"/>
	<path d="M20.26,14.06c0,0.52,0.42,0.94,0.94,0.94c0.52,0,0.94-0.42,0.94-0.94c0-3.53-2.87-6.39-6.39-6.39
		c-0.52,0-0.94,0.42-0.94,0.94c0,0.52,0.42,0.94,0.94,0.94C18.23,9.55,20.26,11.57,20.26,14.06z"/>
	<path d="M18.75,18.39c-1.43-0.07-2.16,0.99-2.51,1.5c-0.29,0.43-0.18,1.01,0.24,1.3c0.43,0.29,1.01,0.18,1.31-0.24
		c0.41-0.6,0.6-0.7,0.85-0.69c0.81,0.1,4.01,2.44,4.33,3.17c0.08,0.22,0.08,0.43-0.01,0.69c-0.34,1-0.89,1.7-1.61,2.03
		c-0.68,0.31-1.52,0.28-2.41-0.08c-3.35-1.37-6.28-3.27-8.7-5.67c0,0,0,0,0,0c-2.39-2.42-4.29-5.35-5.66-8.69
		c-0.37-0.9-0.39-1.73-0.08-2.41c0.33-0.72,1.03-1.27,2.03-1.61C6.79,7.6,7,7.6,7.21,7.67C7.95,8,10.29,11.2,10.39,12
		c0.01,0.26-0.08,0.45-0.69,0.86c-0.43,0.29-0.54,0.88-0.25,1.31c0.29,0.43,0.88,0.54,1.31,0.25c0.51-0.35,1.58-1.08,1.5-2.51
		c-0.08-1.5-3-5.47-4.39-5.98C7.25,5.68,6.6,5.68,5.93,5.91C4.43,6.41,3.35,7.31,2.8,8.51c-0.53,1.16-0.52,2.51,0.05,3.9
		c1.46,3.58,3.5,6.72,6.07,9.31c0.01,0.01,0.01,0.01,0.02,0.02c2.6,2.56,5.73,4.6,9.3,6.06c0.72,0.29,1.42,0.44,2.1,0.44
		c0.64,0,1.24-0.13,1.81-0.39c1.2-0.55,2.1-1.63,2.61-3.13c0.22-0.67,0.22-1.32-0.01-1.94C24.23,21.39,20.25,18.47,18.75,18.39z"/>
</g>
</svg>
