<?xml version="1.0" encoding="utf-8"?>
<!-- Generator: Adobe Illustrator 25.0.1, SVG Export Plug-In . SVG Version: 6.00 Build 0)  -->
<svg version="1.1" id="Main" xmlns="http://www.w3.org/2000/svg" xmlns:xlink="http://www.w3.org/1999/xlink" x="0px" y="0px"
	 viewBox="0 0 30 30" style="enable-background:new 0 0 30 30;" xml:space="preserve">
<style type="text/css">
	.st0{fill:#0468BF;}
	.st1{fill:#EDD107;}
	.st2{fill:#F29F05;}
	.st3{fill:#F0E5D0;}
	.st4{fill:#02D2DE;}
	.st5{fill:#FFFFFF;}
	.st6{fill:#000079;}
	.st7{fill:#EEC906;}
	.st8{fill:#39D4FA;}
	.st9{fill:none;stroke:#EEC906;stroke-width:3;stroke-linecap:round;stroke-linejoin:round;stroke-miterlimit:10;}
	.st10{fill:none;stroke:#FFFFFF;stroke-width:2;stroke-linecap:round;stroke-linejoin:round;stroke-miterlimit:10;}
	.st11{fill:none;stroke:#000000;stroke-width:2;stroke-miterlimit:10;}
	.st12{fill:#000079;stroke:#000000;stroke-width:2;stroke-miterlimit:10;}
	.st13{fill:none;stroke:#000000;stroke-width:5;stroke-miterlimit:10;}
</style>
<g>
	<path d="M15,0.86V0C9.33,0,4.72,4.61,4.71,10.29c0,1.7,0.43,3.39,1.24,4.89l0,0.01l7.78,14.07C13.99,29.71,14.47,30,15,30
		c0.53,0,1.01-0.29,1.27-0.75l7.78-14.07l0-0.01c0.81-1.5,1.23-3.18,1.23-4.88C25.28,4.61,20.67,0,15,0V0.86v0.86
		c2.36,0,4.5,0.96,6.05,2.51c1.55,1.55,2.51,3.69,2.51,6.05c0,1.42-0.36,2.83-1.03,4.07l0.76,0.41l-0.75-0.42l-7.78,14.07L15,28.55
		v-0.27c-0.1,0-0.19,0.05-0.24,0.14L15,28.55v-0.27v0.27l0.24-0.13c-0.05-0.09-0.14-0.14-0.24-0.14v0.27l0.24-0.13L7.46,14.35
		l0,0.01c-0.67-1.25-1.03-2.65-1.03-4.07c0-2.36,0.96-4.5,2.51-6.05C10.5,2.68,12.64,1.72,15,1.72V0.86z M15,15v-0.86
		c-1.06,0-2.02-0.43-2.72-1.13c-0.7-0.7-1.13-1.66-1.13-2.72c0-1.06,0.43-2.02,1.13-2.72c0.7-0.7,1.66-1.13,2.72-1.13
		c1.06,0,2.02,0.43,2.72,1.13c0.7,0.7,1.13,1.66,1.13,2.72c0,1.06-0.43,2.02-1.13,2.72c-0.7,0.7-1.66,1.13-2.72,1.13V15v0.86
		c3.08,0,5.57-2.5,5.57-5.57c0-3.08-2.5-5.57-5.57-5.57c-3.08,0-5.57,2.5-5.57,5.57c0,3.08,2.5,5.57,5.57,5.57V15z"/>
</g>
</svg>
