<svg xmlns="http://www.w3.org/2000/svg" viewBox="0 0 459.79 381.01"><defs><style>.cls-1{fill:#02d2de;}.cls-2{fill:#fff;}</style></defs><g id="Layer_2" data-name="Layer 2"><g id="Layout"><path class="cls-1" d="M0,0H229.89a0,0,0,0,1,0,0V153.11A227.89,227.89,0,0,1,2,381H0a0,0,0,0,1,0,0V0A0,0,0,0,1,0,0Z" transform="translate(229.89 381.01) rotate(-180)"/><path class="cls-2" d="M229.89,0H459.79a0,0,0,0,1,0,0V381a0,0,0,0,1,0,0h-2A227.89,227.89,0,0,1,229.89,153.11V0A0,0,0,0,1,229.89,0Z" transform="translate(689.68 381.01) rotate(180)"/></g></g></svg>