<svg width="239" height="238" viewBox="0 0 239 238" fill="none" xmlns="http://www.w3.org/2000/svg">
<path d="M238.42 237.5L119.42 237.5C103.824 237.503 88.3799 234.433 73.9701 228.466C59.5604 222.5 46.4671 213.753 35.4381 202.726C24.409 191.699 15.6601 178.607 9.69115 164.198C3.72215 149.79 0.649933 134.346 0.649933 118.75C0.649933 103.156 3.72148 87.7137 9.68922 73.3063C15.657 58.8989 24.404 45.808 35.431 34.7811C46.458 23.7541 59.5489 15.0071 73.9563 9.03937C88.3637 3.07162 103.805 6.10352e-05 119.4 6.10352e-05L238.4 6.10352e-05L238.4 237.4L238.42 237.5Z" fill="#02D2DE"/>
</svg>
